<svg xmlns="http://www.w3.org/2000/svg" viewBox="0 0 512 512" width="512" height="512"><rect x="76" y="140" width="360" height="216" rx="16" fill="#E6F1EE" stroke="#2F7A6B" stroke-width="10"></rect><rect x="56" y="366" width="400" height="14" rx="7" fill="#2F7A6B"></rect><rect x="116" y="186" width="280" height="72" rx="14" fill="#F0E3D0" stroke="#2F7A6B" stroke-width="8"></rect><circle cx="152" cy="222" r="14" fill="#2F7A6B"></circle><line x1="186" y1="210" x2="360" y2="210" stroke="#2F7A6B" stroke-width="8" stroke-linecap="round"></line><line x1="186" y1="236" x2="300" y2="236" stroke="#2F7A6B" stroke-width="8" stroke-linecap="round"></line><line x1="116" y1="296" x2="250" y2="296" stroke="#2F7A6B" stroke-width="8" stroke-linecap="round" opacity="0.4"></line><line x1="116" y1="322" x2="200" y2="322" stroke="#2F7A6B" stroke-width="8" stroke-linecap="round" opacity="0.4"></line><circle cx="404" cy="150" r="48" fill="#E6F1EE" stroke="#2F7A6B" stroke-width="10"></circle><path d="M 404 122 a 24 24 0 0 1 24 24 c 0 15 4 21 8 25 h -64 c 4 -4 8 -10 8 -25 a 24 24 0 0 1 24 -24 z" fill="#2F7A6B"></path><path d="M 393 179 a 11 11 0 0 0 22 0" fill="none" stroke="#2F7A6B" stroke-width="8" stroke-linecap="round"></path></svg>
